<?xml version="1.0" standalone="no"?>
<!DOCTYPE svg PUBLIC "-//W3C//DTD SVG 20010904//EN"
 "http://www.w3.org/TR/2001/REC-SVG-20010904/DTD/svg10.dtd">
<svg version="1.0" xmlns="http://www.w3.org/2000/svg"
 width="512.000000pt" height="512.000000pt" viewBox="0 0 512.000000 512.000000"
 preserveAspectRatio="xMidYMid meet">
<metadata>
Created by potrace 1.11, written by Peter Selinger 2001-2013
</metadata>
<g transform="translate(0.000000,512.000000) scale(0.100000,-0.100000)"
fill="#000000" stroke="none">
<path d="M1078 3728 c-456 -35 -854 -342 -1009 -776 -36 -101 -36 -102 -54
-207 -17 -103 -13 -326 9 -425 77 -346 310 -650 620 -807 84 -42 251 -98 326
-109 30 -4 64 -9 75 -10 11 -2 67 -4 125 -4 639 -8 1167 512 1174 1157 l1 121
215 0 215 0 0 -106 c-1 -59 2 -125 6 -147 4 -22 9 -53 12 -70 31 -199 157
-442 312 -600 174 -179 414 -307 640 -340 22 -4 51 -8 65 -11 64 -12 268 -3
362 16 129 27 172 41 293 100 270 130 494 385 590 670 34 99 29 82 49 195 18
111 15 319 -8 422 -51 232 -155 424 -321 589 -231 230 -509 345 -833 345 -64
0 -142 -5 -172 -11 -30 -6 -68 -13 -85 -16 -136 -24 -352 -130 -475 -232 -69
-58 -170 -160 -170 -173 0 -5 -4 -9 -8 -9 -10 0 -102 -140 -137 -210 -16 -30
-40 -89 -54 -130 l-26 -75 -257 0 -257 0 -12 45 c-37 138 -155 333 -272 452
-255 261 -580 384 -939 356z m272 -223 c300 -57 565 -266 696 -550 64 -139 78
-209 78 -395 0 -142 -3 -176 -22 -245 -100 -349 -367 -606 -720 -692 -106 -26
-334 -23 -440 5 -172 47 -326 135 -447 257 -148 149 -239 330 -270 533 -76
515 272 997 785 1087 74 13 270 13 340 0z m2765 -2 c254 -44 487 -197 630
-413 49 -76 114 -214 117 -250 0 -3 4 -12 8 -20 4 -8 11 -31 14 -50 3 -19 9
-48 12 -65 12 -58 6 -259 -10 -337 -77 -365 -353 -651 -712 -740 -94 -23 -289
-31 -385 -15 -48 8 -140 32 -174 46 -11 5 -40 17 -65 27 -71 30 -209 126 -279
196 -184 183 -282 421 -283 683 0 80 10 168 23 202 5 13 6 23 4 23 -8 0 47
143 80 210 185 368 606 576 1020 503z"/>
</g>
</svg>
